# xmcd
#
# Track frame offsets: 
#        150
#        9496
#        23883
#        36833
#        48551
#        64255
#        78142
#        91994
#        103595
#        115373
#        130630
#        141938
#        155244
#        165814
#        182305
#        194279
#        208580
#        221725
#        235116
#        247609
#        260473
#        277511
#        295527
#        316303
#        329281
#
# Disc length: 4554 seconds
#
# Revision: 1
# Processed by: cddbd v1.5.2PL0 Copyright (c) Steve Scherf et al.
# Submitted via: ExactAudioCopyFreeDBPlugin 1.0
#
DISCID=4b11c819
DTITLE=Various Artist - Dave Godin's Deep Soul Treasures:  Taken from
DTITLE=Our Vaults
DYEAR=2000
DGENRE=Soul
TTITLE0=Toussaint McCall - I'm Undecided
TTITLE1=Baby Washington - Breakfast in Bed
TTITLE2=Dee Clark - In These Very Tender Moments
TTITLE3=Jean Plum - Look at the Boy
TTITLE4=James Brown - Lost Someone
TTITLE5=Eddie and Ernie - Thanks for Yesterday
TTITLE6=Bessie Banks - It Sounds Like My Baby
TTITLE7=Bobby Womack - Baby, I Can't Stand It
TTITLE8=Etta James - I'd Rather Go Blind
TTITLE9=Syl Johnson - Is It Because I'm Black
TTITLE10=Maxine Brown - All in My Mind
TTITLE11=Robert Ramsey - Like It Stands
TTITLE12=Irma Thomas - Wish Someone Would Care
TTITLE13=Ray Gant and Arabian Knights - Don't Leave Me Baby
TTITLE14=Carla Thomas - I Can't Take It
TTITLE15=J.R. Bailey - Too Far Gone to Turn Around
TTITLE16=Bettye LaVette - Let Me Down Easy
TTITLE17=Bobby "Blue" Bland - I'm Too Far Gone (To Turn Around)
TTITLE18=Barbara and The Browns - I Don't Want to Have to Wait
TTITLE19=Enchanters, The - I Paid for the Party
TTITLE20=Rozetta Johnson - Who Are You Gonna Love (Your Woman or Your 
TTITLE20=Wife)
TTITLE21=Rick James - Ebony Eyes
TTITLE22=Doris Duke - He's Gone
TTITLE23=The Impressions - My Deceiving Heart
TTITLE24=Loretta Williams - I'm Missing You
EXTD=
EXTT0=
EXTT1=
EXTT2=
EXTT3=
EXTT4=
EXTT5=
EXTT6=
EXTT7=
EXTT8=
EXTT9=
EXTT10=
EXTT11=
EXTT12=
EXTT13=
EXTT14=
EXTT15=
EXTT16=
EXTT17=
EXTT18=
EXTT19=
EXTT20=
EXTT21=
EXTT22=
EXTT23=
EXTT24=
PLAYORDER=
